<?xml version="1.0" encoding="UTF-8"?>
<svg version="1.1" xmlns="http://www.w3.org/2000/svg" width="1127" height="222">
<path d="M0 0 C22.11 0 44.22 0 67 0 C67 4.95 67 9.9 67 15 C50.83 15 34.66 15 18 15 C18 22.26 18 29.52 18 37 C32.19 37 46.38 37 61 37 C61 41.95 61 46.9 61 52 C46.81 52 32.62 52 18 52 C18 59.92 18 67.84 18 76 C34.83 76 51.66 76 69 76 C69.99 73.03 70.98 70.06 72 67 C73.06418926 64.50117689 74.14752674 62.0452063 75.30078125 59.58984375 C75.77078804 58.57251663 75.77078804 58.57251663 76.25028992 57.53463745 C76.92057772 56.08419446 77.59280731 54.63464745 78.2668457 53.1859436 C80.06023683 49.32966068 81.83742016 45.46594328 83.61328125 41.6015625 C83.97632355 40.81185562 84.33936584 40.02214874 84.71340942 39.20851135 C88.57434112 30.78639615 92.30090659 22.30670101 96 13.8125 C96.30676666 13.10833954 96.61353333 12.40417908 96.92959595 11.67868042 C98.62383824 7.78754755 100.31263143 3.89413029 102 0 C107.94 0 113.88 0 120 0 C124.75591139 9.33454588 129.19165386 18.73913914 133.3972168 28.33230591 C138.1124854 39.08720961 142.88521331 49.81272959 147.8203125 60.46875 C148.21366791 61.31888168 148.60702332 62.16901337 149.01229858 63.04490662 C150.92245432 67.16927188 152.84024902 71.28989903 154.76708984 75.40649414 C155.45947198 76.89722291 156.15170031 78.38802312 156.84375 79.87890625 C157.1648172 80.55848389 157.4858844 81.23806152 157.81668091 81.93823242 C159.14833783 84.81821228 160 86.78566915 160 90 C154.06 90 148.12 90 142 90 C134 74.21621622 134 74.21621622 134 70 C119.15 70 104.3 70 89 70 C88.01 72.97 87.02 75.94 86 79 C84.35 82.63 82.7 86.26 81 90 C54.27 90 27.54 90 0 90 C0 60.3 0 30.6 0 0 Z M111 19 C105.12623067 31.12527303 100.04411225 43.50612196 95 56 C105.56 56 116.12 56 127 56 C125.1526704 50.45801119 123.37861219 45.30539378 121.08203125 39.99609375 C120.81992355 39.38733902 120.55781586 38.77858429 120.2877655 38.15138245 C119.46612685 36.24524275 118.6394294 34.34134946 117.8125 32.4375 C117.24770722 31.12970392 116.68325152 29.82176222 116.11914062 28.51367188 C114.74997252 25.34076099 113.37626474 22.16984025 112 19 C111.67 19 111.34 19 111 19 Z " fill="#2D2D2D" transform="translate(185,14)"/>
<path d="M0 0 C147.84 0 295.68 0 448 0 C448 4.62 448 9.24 448 14 C300.16 14 152.32 14 0 14 C0 9.38 0 4.76 0 0 Z " fill="#2E2E2E" transform="translate(88,139)"/>
<path d="M0 0 C0.33 -1.32 0.66 -2.64 1 -4 C26.41 -4 51.82 -4 78 -4 C78 0.95 78 5.9 78 11 C68.1 11 58.2 11 48 11 C48 35.75 48 60.5 48 86 C42.06 86 36.12 86 30 86 C30 61.25 30 36.5 30 11 C15.645 11.495 15.645 11.495 1 12 C0.34 13.32 -0.32 14.64 -1 16 C-4.71955087 15.3507693 -8.08360078 14.29819486 -11.625 13 C-20.64843396 9.97007242 -29.84815654 8.65256897 -39 12 C-42.09644428 14.3381314 -43.56821787 15.92054467 -45 19.5 C-45 22.99983872 -44.26965758 24.31767741 -42 27 C-35.89726027 30.48036064 -29.85215025 32.30839651 -23.0625 34 C-11.88663826 36.79588569 -0.75074208 39.71552881 5.875 49.875 C8.48618017 57.12827825 8.5235002 63.71889163 6 71 C1.53672067 79.14477406 -5.04680745 83.83031079 -13.82421875 86.44140625 C-29.51290106 90.46920081 -46.46597479 87.89136166 -60.7421875 80.59765625 C-63.25367175 78.82049871 -64.31528377 78.01168155 -65 75 C-63.8828125 71.984375 -63.8828125 71.984375 -62.125 68.75 C-61.55007813 67.67234375 -60.97515625 66.5946875 -60.3828125 65.484375 C-59.92648437 64.66453125 -59.47015625 63.8446875 -59 63 C-58.02160156 63.48210937 -57.04320312 63.96421875 -56.03515625 64.4609375 C-43.72812284 70.43441647 -31.75171812 74.86057222 -17.9375 70.75 C-15.42447151 69.77119361 -13.98444822 68.98633329 -11.9375 67.1875 C-10.63549391 64.14948579 -10.46512016 62.27613904 -11 59 C-14.53870874 54.68304141 -17.9833413 52.92617074 -23.25 51.5 C-23.9409375 51.29624756 -24.631875 51.09249512 -25.34375 50.88256836 C-29.0629667 49.79264053 -32.80237402 48.78406547 -36.546875 47.78515625 C-44.31545696 45.67505626 -51.08393077 43.75574215 -57 38 C-57.78375 37.34 -58.5675 36.68 -59.375 36 C-63.4086604 31.0354949 -63.49738659 25.26678685 -63.375 19.1015625 C-62.57862003 12.51483648 -59.58412313 7.13234091 -54.75 2.625 C-40.37502056 -8.45440555 -15.63127944 -8.30298908 0 0 Z " fill="#2D2D2D" transform="translate(797,18)"/>
<path d="M0 0 C0.91539551 0.00612305 1.83079102 0.01224609 2.77392578 0.01855469 C12.88395201 0.25129834 21.12186751 3.02641569 29.625 8.4375 C28.635 6.1275 27.645 3.8175 26.625 1.4375 C29.67150632 1.19317623 32.69841019 1.01594586 35.75 0.875 C36.6059375 0.79958984 37.461875 0.72417969 38.34375 0.64648438 C41.87934402 0.52409843 44.53187417 0.44594488 47.23828125 2.90087891 C48.89782528 5.32918231 50.24725483 7.83777853 51.625 10.4375 C52.75072356 12.36274872 53.89799386 14.2743559 55.04458618 16.1872406 C57.62407191 20.50051665 60.15337556 24.84367666 62.68603516 29.18457031 C63.94763764 31.34447917 65.21556033 33.50057234 66.484375 35.65625 C67.06406036 36.65609924 67.06406036 36.65609924 67.65545654 37.67614746 C69.55069519 41.13927109 69.55069519 41.13927109 72.625 43.4375 C72.88837158 42.7273877 73.15174316 42.01727539 73.4230957 41.28564453 C74.68448956 38.29652799 76.18082253 35.64516604 77.85546875 32.8671875 C78.49419922 31.805 79.13292969 30.7428125 79.79101562 29.6484375 C80.45810547 28.54757813 81.12519531 27.44671875 81.8125 26.3125 C82.46025391 25.23484375 83.10800781 24.1571875 83.77539062 23.046875 C95.56222733 3.50027267 95.56222733 3.50027267 97.625 1.4375 C100.48767567 1.36424832 103.325719 1.34511795 106.1875 1.375 C106.99380859 1.37951172 107.80011719 1.38402344 108.63085938 1.38867188 C110.62893756 1.40049482 112.62697783 1.41843086 114.625 1.4375 C112.5646772 6.96484445 109.56609897 11.8145052 106.54812622 16.86361694 C105.47974961 18.65903091 104.42534334 20.46210924 103.37280273 22.2668457 C99.81892694 28.32366949 96.16536753 34.18649601 92.04296875 39.875 C79.74365747 57.26354118 78.45649509 70.74965177 79.625 91.4375 C74.015 91.4375 68.405 91.4375 62.625 91.4375 C62.76164062 89.54773438 62.89828125 87.65796875 63.0390625 85.7109375 C63.8677366 64.28735614 58.09109123 51.00404499 45.87402344 33.65039062 C43.69644761 30.53956802 41.59696838 27.39417502 39.5390625 24.203125 C38.97396973 23.32946289 38.40887695 22.45580078 37.82666016 21.55566406 C36.625 19.4375 36.625 19.4375 36.625 17.4375 C32.11454059 19.89775059 28.43995577 23.04032037 24.625 26.4375 C24.12871094 26.03917969 23.63242188 25.64085938 23.12109375 25.23046875 C15.01969473 18.91229988 7.13519546 15.42866797 -3.375 16.4375 C-12.14218888 18.20766373 -19.50846884 21.36800647 -24.75 28.8125 C-29.82196871 37.21983943 -31.0279401 46.66608062 -28.6875 56.25390625 C-25.3419598 65.38444304 -20.48198669 70.3809424 -11.7421875 74.4921875 C-3.92288824 77.61474595 5.178623 77.71692185 13.0625 74.75 C16.11523721 73.37453656 18.50670309 71.85093589 21 69.625 C23.625 67.4375 23.625 67.4375 25.4921875 67.515625 C28.44060985 68.79003466 30.16118958 70.68852148 32.375 73 C33.57382813 74.23943359 33.57382813 74.23943359 34.796875 75.50390625 C35.70179687 76.46103516 35.70179687 76.46103516 36.625 77.4375 C30.04784194 86.64552128 20.08483346 90.91790429 9.25 93.125 C-6.256048 94.46172828 -20.71315817 92.30439879 -33.06640625 82.24609375 C-42.38510375 73.59400949 -47.6905443 63.06965839 -48.58984375 50.4140625 C-49.02918229 35.61714055 -44.81708599 23.43514253 -34.73828125 12.578125 C-24.90645444 3.67260254 -13.05963288 -0.14991617 0 0 Z " fill="#2D2D2D" transform="translate(1001.375,12.5625)"/>
<path d="M0 0 C8.1675 -0.061875 16.335 -0.12375 24.75 -0.1875 C28.57996582 -0.22846802 28.57996582 -0.22846802 32.48730469 -0.27026367 C34.54882334 -0.27903912 36.61034726 -0.28668054 38.671875 -0.29296875 C39.71166504 -0.30831665 40.75145508 -0.32366455 41.82275391 -0.33947754 C51.69666042 -0.34293964 61.57563536 0.79865991 69.37890625 7.3203125 C74.44795227 12.57257705 76.37978596 18.49204235 76.28515625 25.7109375 C75.59671461 31.23733205 73.36018326 36.31977362 69.875 40.625 C68 42 68 42 66 42 C66 42.66 66 43.32 66 44 C67.0828125 44.3403125 67.0828125 44.3403125 68.1875 44.6875 C72.88963863 46.88183136 76.14858266 50.72287399 79 55 C80.19104332 58.57312995 80.20528823 61.54553322 80.25 65.3125 C80.27578125 66.60800781 80.3015625 67.90351562 80.328125 69.23828125 C79.81744477 75.09286533 77.67394427 78.89175582 73.25 82.6875 C66.60651123 88.20951911 59.79271036 90.13257807 51.19995117 90.11352539 C50.04329956 90.11340454 48.88664795 90.11328369 47.69494629 90.11315918 C46.4897937 90.10804321 45.28464111 90.10292725 44.04296875 90.09765625 C42.92748657 90.09664917 41.81200439 90.09564209 40.66271973 90.09460449 C36.50430266 90.08938088 32.34590028 90.07541961 28.1875 90.0625 C18.885625 90.041875 9.58375 90.02125 0 90 C0 60.3 0 30.6 0 0 Z M17 14 C17 21.92 17 29.84 17 38 C21.31288504 38.08137519 25.62421469 38.14068915 29.9375 38.1875 C31.75604492 38.22520508 31.75604492 38.22520508 33.61132812 38.26367188 C41.60920945 38.3286953 49.10450796 38.21378094 55.5 32.9375 C58.3869251 29.20855508 58.14323096 26.74028971 57.56640625 22.19140625 C57.11536308 19.75226605 57.11536308 19.75226605 54.8125 17.5625 C49.55054609 14.63919227 45.06805222 13.75161016 39.0703125 13.8046875 C37.13671875 13.81435547 37.13671875 13.81435547 35.1640625 13.82421875 C33.81770558 13.84092537 32.47135141 13.85785521 31.125 13.875 C29.75521483 13.88504336 28.38542258 13.89416683 27.015625 13.90234375 C23.67700742 13.92585514 20.33848095 13.96172442 17 14 Z M17 52 C17 59.92 17 67.84 17 76 C21.83902614 76.09226957 26.67495234 76.17176613 31.51416016 76.21972656 C33.1571695 76.23973571 34.80010859 76.26695213 36.44287109 76.30175781 C38.81625788 76.35075305 41.18869649 76.37307504 43.5625 76.390625 C44.28679199 76.41127014 45.01108398 76.43191528 45.75732422 76.45318604 C51.20005079 76.45553474 55.48615722 75.09852198 60 72 C62.52157588 68.56148744 63 66.69492859 63 62.4375 C61.7942309 58.29266873 60.35709208 56.67041415 57 54 C52.68570114 51.75689575 48.61053066 51.73833705 43.85546875 51.8046875 C43.08568192 51.8075174 42.31589508 51.81034729 41.52278137 51.81326294 C39.07752575 51.82440843 36.63264388 51.84950219 34.1875 51.875 C32.52409385 51.8850371 30.86068193 51.89416167 29.19726562 51.90234375 C25.13125252 51.92262312 21.06604189 51.96178133 17 52 Z " fill="#2D2D2D" transform="translate(580,14)"/>
<path d="M0 0 C7.8375 -0.061875 15.675 -0.12375 23.75 -0.1875 C27.42334473 -0.22846802 27.42334473 -0.22846802 31.17089844 -0.27026367 C33.15038564 -0.27903996 35.12987833 -0.28668117 37.109375 -0.29296875 C38.10598145 -0.30831665 39.10258789 -0.32366455 40.12939453 -0.33947754 C54.83824943 -0.34484573 67.87659468 4.13783333 78.6640625 14.26171875 C88.78885179 26.13040988 90.15944099 40.00624815 89 55 C87.51288075 62.90297661 84.33529385 69.04462357 79 75 C78.49855469 75.60457031 77.99710938 76.20914063 77.48046875 76.83203125 C70.46276942 84.66931591 59.75105133 89.50484332 49.27870178 90.17384338 C46.13185323 90.23040293 42.99095161 90.22507826 39.84375 90.1953125 C38.82958008 90.19329834 37.81541016 90.19128418 36.77050781 90.18920898 C33.01362529 90.17881378 29.25680768 90.15089164 25.5 90.125 C17.085 90.08375 8.67 90.0425 0 90 C0 60.3 0 30.6 0 0 Z M18 15 C18 34.8 18 54.6 18 75 C43.57524127 76.89267721 43.57524127 76.89267721 64.2421875 66.04296875 C69.73491263 59.65920154 72.234982 52.38102454 72 44 C71.18673709 35.89201525 68.91028041 28.39609297 62.8125 22.75 C49.44748581 12.20169848 35.07899033 15 18 15 Z " fill="#2D2D2D" transform="translate(485,14)"/>
<path d="M0 0 C7.321875 -0.0825 14.64375 -0.165 22.1875 -0.25 C24.47067139 -0.28641602 26.75384277 -0.32283203 29.10620117 -0.36035156 C43.19512179 -0.49166651 56.96542715 -0.03345233 68 10 C74.34194036 17.36703848 76.47528134 24.82114199 76.25390625 34.4140625 C75.28435586 44.28856035 71.20667956 51.37103429 63.78125 57.80078125 C61.85684678 59.09637728 60.26654934 59.57750725 58 60 C61.82468201 67.05205852 66.47136835 73.45014547 71.13085938 79.96875 C71.74123047 80.82984375 72.35160156 81.6909375 72.98046875 82.578125 C73.81421021 83.74456543 73.81421021 83.74456543 74.66479492 84.93457031 C76 87 76 87 77 90 C61.15596547 92.21652296 61.15596547 92.21652296 56.13330078 88.68896484 C51.53659914 83.86474543 48.26734367 77.87264564 45.59375 71.8125 C44.07063379 68.76626757 42.63731076 67.14997867 40 65 C37.34369544 64.25723066 37.34369544 64.25723066 34.45703125 64.171875 C33.51577393 64.10323242 32.5745166 64.03458984 31.60473633 63.96386719 C26.73800731 63.84177129 21.86794959 63.94499492 17 64 C17 72.58 17 81.16 17 90 C11.39 90 5.78 90 0 90 C0 60.3 0 30.6 0 0 Z M17 15 C17 26.55 17 38.1 17 50 C20.63 50.04125 24.26 50.0825 28 50.125 C29.12792969 50.14320801 30.25585938 50.16141602 31.41796875 50.18017578 C40.04243338 50.22731231 46.99692936 49.53731167 54 44 C57.77817018 39.7007029 58.30087346 35.82639268 58.2109375 30.27734375 C57.75414996 25.34573011 55.65068425 22.6362246 52.1875 19.25 C47.16799222 15.70681804 42.81597299 14.74439631 36.7265625 14.8046875 C35.68580566 14.80968262 34.64504883 14.81467773 33.57275391 14.81982422 C32.26999512 14.83803223 30.96723633 14.85624023 29.625 14.875 C23.375625 14.936875 23.375625 14.936875 17 15 Z " fill="#2D2D2D" transform="translate(103,14)"/>
<path d="M0 0 C21.78 0 43.56 0 66 0 C66 4.95 66 9.9 66 15 C49.83 15 33.66 15 17 15 C17 22.26 17 29.52 17 37 C31.19 37 45.38 37 60 37 C60 41.95 60 46.9 60 52 C45.81 52 31.62 52 17 52 C17 59.92 17 67.84 17 76 C33.83 76 50.66 76 68 76 C68 80.62 68 85.24 68 90 C45.56 90 23.12 90 0 90 C0 60.3 0 30.6 0 0 Z " fill="#2E2E2E" transform="translate(411,14)"/>
<path d="M0 0 C5.94 0 11.88 0 18 0 C26.624012 18.34703603 35.08797635 36.75166514 43.33398438 55.27246094 C45.10988327 59.25300617 46.906203 63.22422468 48.703125 67.1953125 C49.61206521 69.20788083 50.52067897 71.2205962 51.4291687 73.23336792 C52.01444885 74.52814229 52.60096145 75.82236031 53.18875122 77.11599731 C54.00029085 78.90263073 54.80691147 80.69149606 55.61328125 82.48046875 C56.07516846 83.50035889 56.53705566 84.52024902 57.01293945 85.57104492 C58 88 58 88 58 90 C51.73 90 45.46 90 39 90 C36.36 83.73 33.72 77.46 31 71 C16.48 71 1.96 71 -13 71 C-15.64 77.27 -18.28 83.54 -21 90 C-27.27 90 -33.54 90 -40 90 C-35.68156209 79.3545484 -31.19680892 68.83933454 -26.37536621 58.41351318 C-24.631023 54.64098518 -22.89816905 50.86317907 -21.1640625 47.0859375 C-20.64017944 45.94579697 -20.64017944 45.94579697 -20.10571289 44.78262329 C-16.60963664 37.16650531 -13.17150979 29.52485384 -9.75 21.875 C-9.22583496 20.70356445 -8.70166992 19.53212891 -8.16162109 18.32519531 C-5.43297337 12.22039383 -2.71339331 6.11159541 0 0 Z M8 20 C5.86147583 24.96524362 3.72529188 29.93148472 1.59130859 34.89868164 C0.86441904 36.58971619 0.13688104 38.28047215 -0.59130859 39.97094727 C-1.63548049 42.3952729 -2.67734643 44.82057789 -3.71875 47.24609375 C-4.04685669 48.00651474 -4.37496338 48.76693573 -4.7130127 49.55039978 C-6.29907184 52.670943 -6.29907184 52.670943 -7 56 C3.56 56 14.12 56 25 56 C21.71540117 47.46004304 18.36937617 39.04944987 14.6875 30.6875 C14.23310547 29.64916016 13.77871094 28.61082031 13.31054688 27.54101562 C12.20959352 25.02620638 11.1060685 22.51256259 10 20 C9.34 20 8.68 20 8 20 Z " fill="#2D2D2D" transform="translate(902,14)"/>
<path d="M0 0 C2.66277514 1.98602332 5.08158326 4.03452514 7.375 6.4375 C5.9868265 9.56607014 4.36398122 11.71939174 1.9375 14.125 C1.34066406 14.72699219 0.74382812 15.32898438 0.12890625 15.94921875 C-1.625 17.4375 -1.625 17.4375 -4.625 18.4375 C-6.203125 17.328125 -6.203125 17.328125 -7.875 15.6875 C-13.92453614 10.18676144 -21.00312421 8.00905538 -29.1875 8.1640625 C-38.39528102 9.19698665 -46.63659449 12.19226864 -52.625 19.4375 C-57.78208905 27.02600941 -59.28008369 35.64427334 -58.2421875 44.65625 C-57.2001491 49.35201799 -54.99633417 53.2932057 -52.625 57.4375 C-52.32464844 58.15035156 -52.02429688 58.86320312 -51.71484375 59.59765625 C-50.33122025 61.93345075 -49.10701 62.41093337 -46.625 63.4375 C-45.635 63.94990234 -45.635 63.94990234 -44.625 64.47265625 C-43.965 64.81167969 -43.305 65.15070313 -42.625 65.5 C-41.965 65.84160156 -41.305 66.18320313 -40.625 66.53515625 C-32.77928547 70.07492199 -22.55558673 69.50690526 -14.62109375 66.5078125 C-11.72696825 64.95597221 -9.50104046 62.90154196 -7.23046875 60.546875 C-5.625 59.4375 -5.625 59.4375 -3.72265625 59.51171875 C-0.94896809 60.73586045 0.90476302 62.44301574 3.125 64.5 C3.92421875 65.23347656 4.7234375 65.96695313 5.546875 66.72265625 C6.45179687 67.57150391 6.45179687 67.57150391 7.375 68.4375 C4.0428591 75.85111491 -2.56303479 79.33401406 -9.8046875 82.40234375 C-23.87168042 87.56543672 -39.20665063 86.46600621 -52.8125 80.3125 C-62.13578115 75.23396474 -69.08694778 68.00784776 -73.625 58.4375 C-73.96402344 57.72722656 -74.30304688 57.01695313 -74.65234375 56.28515625 C-78.71819661 45.62400289 -78.5195884 30.14128767 -73.88671875 19.75390625 C-67.28034667 7.62517979 -58.99789922 -1.0755765 -45.875 -5.875 C-30.60773061 -10.22439651 -13.26822541 -8.99799195 0 0 Z " fill="#2D2D2D" transform="translate(91.625,20.5625)"/>
<path d="M0 0 C6.46451967 -1.78820961 12.7413537 -3.01449625 19 0 C25.60767395 6.8761603 29.75580675 15.87281324 34.05224609 24.30224609 C37.02875871 30.06884493 40.52303807 35.52535284 44 41 C47.00569712 37.39441844 49.51445124 33.6884447 51.93359375 29.66796875 C52.29340836 29.07252762 52.65322296 28.47708649 53.02394104 27.86360168 C54.16516612 25.97357664 55.30150129 24.08067002 56.4375 22.1875 C57.19562002 20.92882949 57.95408079 19.67036415 58.71289062 18.41210938 C59.08166824 17.79953278 59.45044586 17.18695618 59.83039856 16.55581665 C60.56094641 15.34705143 61.29534765 14.14060603 62.03373718 12.93661499 C63.55844366 10.44420889 65.01784027 7.96420081 66.3215332 5.34814453 C67.40441663 3.23938385 68.27613698 1.6262347 70 0 C73.16970824 -0.92750943 76.04601123 -0.76812536 79.3125 -0.5 C80.14845703 -0.46390625 80.98441406 -0.4278125 81.84570312 -0.390625 C83.89911906 -0.29675456 85.9501609 -0.153259 88 0 C84.81783329 6.71974425 81.05329282 13.0315725 77.17333984 19.36532593 C76.03766456 21.22823899 74.9161052 23.09909102 73.796875 24.97192383 C70.41172324 30.60910686 67.02142439 36.10879977 63.02734375 41.34375 C51.65703925 56.67027231 52.32442498 71.62657433 53 90 C47.06 90 41.12 90 35 90 C35.12503906 88.01484375 35.25007812 86.0296875 35.37890625 83.984375 C36.08706074 62.90306 31.44520722 50.40423472 19.35400391 33.39453125 C15.4307238 27.82186227 12.03054119 21.92408061 8.5625 16.0625 C7.93069824 15.019729 7.29889648 13.97695801 6.64794922 12.90258789 C6.06416504 11.93571045 5.48038086 10.96883301 4.87890625 9.97265625 C4.3691626 9.12968994 3.85941895 8.28672363 3.33422852 7.41821289 C2.00070427 5.00127644 0.96746739 2.58269727 0 0 Z " fill="#2D2D2D" transform="translate(653,14)"/>
<path d="M0 0 C25.41 0 50.82 0 77 0 C77 4.95 77 9.9 77 15 C67.43 15 57.86 15 48 15 C48 39.75 48 64.5 48 90 C42.06 90 36.12 90 30 90 C30 65.25 30 40.5 30 15 C20.1 15 10.2 15 0 15 C0 10.05 0 5.1 0 0 Z " fill="#2E2E2E" transform="translate(333,14)"/>
<path d="M0 0 C2.64 0 5.28 0 8 0 C9.32 4.29 10.64 8.58 12 13 C13.65 8.71 15.3 4.42 17 0 C19.31 0 21.62 0 24 0 C26.475 6.435 26.475 6.435 29 13 C29.639375 11.040625 30.27875 9.08125 30.9375 7.0625 C32.875 1.125 32.875 1.125 34 0 C36.33297433 -0.04092937 38.66705225 -0.04241723 41 0 C38.74603165 8.814299 35.9375631 17.39630728 33 26 C30.69 26 28.38 26 26 26 C23.525 20.06 23.525 20.06 21 14 C19.20931427 16.6860286 18.33944209 18.6626589 17.375 21.6875 C17.11460937 22.49574219 16.85421875 23.30398437 16.5859375 24.13671875 C16.29589844 25.05904297 16.29589844 25.05904297 16 26 C13.36 26 10.72 26 8 26 C5.36 17.42 2.72 8.84 0 0 Z " fill="#2D2D2D" transform="translate(566,132)"/>
<path d="M0 0 C2.31 0 4.62 0 7 0 C9.14453125 2.37109375 9.14453125 2.37109375 10.8125 5.4375 C12.73576859 9.4014069 12.73576859 9.4014069 16 12 C16.3403125 10.9790625 16.3403125 10.9790625 16.6875 9.9375 C17.76212393 7.53238931 18.84798867 5.40547291 20.25 3.1875 C20.62640625 2.58292969 21.0028125 1.97835937 21.390625 1.35546875 C23 0 23 0 29 0 C29 8.58 29 17.16 29 26 C26.69 26 24.38 26 22 26 C21.67 22.37 21.34 18.74 21 15 C20.62875 15.825 20.2575 16.65 19.875 17.5 C18 20 18 20 15.0625 20.625 C12 20 12 20 9.625 17.5 C9.08875 16.675 8.5525 15.85 8 15 C7.67 18.63 7.34 22.26 7 26 C4.69 26 2.38 26 0 26 C0 17.42 0 8.84 0 0 Z " fill="#2D2D2D" transform="translate(936,132)"/>
<path d="M0 0 C4.01660467 3.36629725 5.81222571 7.04714737 6.3125 12.25 C5.93852374 16.73771517 4.865597 19.54521483 2 23 C-2.10893221 25.96225345 -5.87185587 26.53041419 -10.8203125 26.35546875 C-15.07411703 25.66174794 -17.8158939 23.30562534 -20.63671875 20.1953125 C-23.16519119 16.12367492 -22.57579122 11.61972022 -22 7 C-20.54161198 3.4491422 -19.39941813 1.78367415 -16.046875 -0.09375 C-10.49178954 -2.34686158 -5.49294689 -2.55485902 0 0 Z M-15 9 C-15.42519574 12.46230815 -15.63902633 14.8347167 -13.9375 17.9375 C-10.88023824 19.6140629 -8.4093712 19.36528977 -5 19 C-2.33989342 17.40393605 -2.02442912 16.07023371 -1 13.125 C-0.69042132 9.82299384 -0.69042132 9.82299384 -3.125 7.125 C-5.76963649 4.86785551 -5.76963649 4.86785551 -8.5625 4.4375 C-11.89584898 5.20673438 -13.05202434 6.18625737 -15 9 Z " fill="#2D2D2D" transform="translate(885,133)"/>
<path d="M0 0 C2.536875 -0.103125 5.07375 -0.20625 7.6875 -0.3125 C8.47729248 -0.35802002 9.26708496 -0.40354004 10.08081055 -0.45043945 C14.14935961 -0.53017458 15.64872617 -0.26187509 19.0390625 2.265625 C21 5 21 5 21.19921875 7.09765625 C21.03035156 7.74605469 20.86148438 8.39445313 20.6875 9.0625 C19.95665064 13.24827359 20.17021799 13.56915873 22 17 C21.86732143 20.25062485 21.70215518 22.22144451 19.4921875 24.671875 C15.78319724 26.64845288 12.37639595 26.31991653 8.25 26.1875 C5.5275 26.125625 2.805 26.06375 0 26 C0 17.42 0 8.84 0 0 Z M7 6 C7 7.32 7 8.64 7 10 C8.98 10 10.96 10 13 10 C13 8.68 13 7.36 13 6 C11.02 6 9.04 6 7 6 Z M7 16 C7 17.65 7 19.3 7 21 C8.98 21 10.96 21 13 21 C13.66 19.68 14.32 18.36 15 17 C13.81575674 15.58422523 13.81575674 15.58422523 10.4375 15.9375 C8.7359375 15.9684375 8.7359375 15.9684375 7 16 Z " fill="#2D2D2D" transform="translate(649,132)"/>
<path d="M0 0 C2.35125 -0.061875 4.7025 -0.12375 7.125 -0.1875 C7.85348145 -0.21481201 8.58196289 -0.24212402 9.33251953 -0.27026367 C13.99817348 -0.32910634 17.04642163 0.56657546 21 3 C23.96374903 6.27034375 24.92181902 8.94455676 25.25 13.375 C24.90621947 18.35981766 23.35362662 20.60279071 19.9375 24.12890625 C15.92095952 26.68731435 12.82807879 26.45070248 8.1875 26.25 C5.485625 26.1675 2.78375 26.085 0 26 C0 17.42 0 8.84 0 0 Z M7 6 C7 10.62 7 15.24 7 20 C13.65792099 20.75558982 13.65792099 20.75558982 16.5 17.875 C18.23016087 15.07850006 18.23016087 15.07850006 18.0625 11.875 C17.22322542 8.86915966 17.22322542 8.86915966 14.75 7.125 C11.72391355 5.68447263 11.72391355 5.68447263 7 6 Z " fill="#2D2D2D" transform="translate(700,132)"/>
<path d="M0 0 C2.31 0 4.62 0 7 0 C9.06646019 2.21558618 10.41904041 3.95955108 11.9375 6.5 C12.33517578 7.12003906 12.73285156 7.74007812 13.14257812 8.37890625 C14.11716883 9.90537362 15.06165585 11.45098743 16 13 C16.33 8.71 16.66 4.42 17 0 C18.98 0 20.96 0 23 0 C23 8.58 23 17.16 23 26 C21.02 26 19.04 26 17 26 C15.04072278 23.98679772 13.6472999 22.29898352 12.125 20 C11.7228125 19.42765625 11.320625 18.8553125 10.90625 18.265625 C9.9195939 16.85611629 8.95731894 15.42959628 8 14 C7.67 17.96 7.34 21.92 7 26 C4.69 26 2.38 26 0 26 C0 17.42 0 8.84 0 0 Z " fill="#2D2D2D" transform="translate(1010,132)"/>
<path d="M0 0 C3.58875 -0.061875 3.58875 -0.061875 7.25 -0.125 C7.99668945 -0.14320801 8.74337891 -0.16141602 9.51269531 -0.18017578 C13.17846664 -0.21074031 15.97656697 -0.17399232 19 2 C21.68990329 6.03485494 21.77993882 9.26228652 21 14 C19.0625 17.0625 19.0625 17.0625 16 19 C12.95020747 19.38759905 10.05443727 19.29945463 7 19 C7 21.31 7 23.62 7 26 C4.69 26 2.38 26 0 26 C0 17.42 0 8.84 0 0 Z M7 6 C7 8.31 7 10.62 7 13 C8.99954746 13.04254356 11.00041636 13.04080783 13 13 C14.29633621 11.93354885 14.29633621 11.93354885 14.0625 9.4375 C14.041875 8.633125 14.02125 7.82875 14 7 C11.69 6.67 9.38 6.34 7 6 Z " fill="#2E2E2E" transform="translate(903,132)"/>
<path d="M0 0 C5.94 0 11.88 0 18 0 C18 1.98 18 3.96 18 6 C14.37 6 10.74 6 7 6 C7 7.32 7 8.64 7 10 C10.3 10 13.6 10 17 10 C17 11.98 17 13.96 17 16 C13.7 16 10.4 16 7 16 C7 17.65 7 19.3 7 21 C10.63 21 14.26 21 18 21 C18 22.65 18 24.3 18 26 C12.06 26 6.12 26 0 26 C0 17.42 0 8.84 0 0 Z " fill="#2E2E2E" transform="translate(979,132)"/>
<path d="M0 0 C5.94 0 11.88 0 18 0 C18 1.98 18 3.96 18 6 C14.37 6 10.74 6 7 6 C7 7.32 7 8.64 7 10 C10.3 10 13.6 10 17 10 C17 11.98 17 13.96 17 16 C13.7 16 10.4 16 7 16 C7 17.65 7 19.3 7 21 C10.63 21 14.26 21 18 21 C18 22.65 18 24.3 18 26 C12.06 26 6.12 26 0 26 C0 17.42 0 8.84 0 0 Z " fill="#2E2E2E" transform="translate(803,132)"/>
<path d="M0 0 C5.94 0 11.88 0 18 0 C18 1.98 18 3.96 18 6 C14.37 6 10.74 6 7 6 C7 7.32 7 8.64 7 10 C10.3 10 13.6 10 17 10 C17 11.98 17 13.96 17 16 C13.7 16 10.4 16 7 16 C7 17.65 7 19.3 7 21 C10.63 21 14.26 21 18 21 C18 22.65 18 24.3 18 26 C12.06 26 6.12 26 0 26 C0 17.42 0 8.84 0 0 Z " fill="#2E2E2E" transform="translate(737,132)"/>
<path d="M0 0 C5.94 0 11.88 0 18 0 C18 1.98 18 3.96 18 6 C14.37 6 10.74 6 7 6 C7 7.32 7 8.64 7 10 C10.3 10 13.6 10 17 10 C17 11.98 17 13.96 17 16 C13.7 16 10.4 16 7 16 C7 17.65 7 19.3 7 21 C10.63 21 14.26 21 18 21 C18 22.65 18 24.3 18 26 C12.06 26 6.12 26 0 26 C0 17.42 0 8.84 0 0 Z " fill="#2D2D2D" transform="translate(618,132)"/>
<path d="M0 0 C2.31 0 4.62 0 7 0 C7.34933594 0.92683594 7.69867187 1.85367188 8.05859375 2.80859375 C8.51363281 4.00613281 8.96867188 5.20367187 9.4375 6.4375 C10.11619141 8.22994141 10.11619141 8.22994141 10.80859375 10.05859375 C11.7144826 12.84445723 11.7144826 12.84445723 13 14 C13.34933594 13.07316406 13.69867187 12.14632812 14.05859375 11.19140625 C14.51363281 9.99386719 14.96867188 8.79632813 15.4375 7.5625 C15.88996094 6.36753906 16.34242188 5.17257813 16.80859375 3.94140625 C18 1 18 1 19 0 C21.33297433 -0.04092937 23.66705225 -0.04241723 26 0 C24.3422142 6.18034181 22.2481251 12.12685029 19.875 18.0625 C19.47643799 19.06325562 19.47643799 19.06325562 19.06982422 20.08422852 C17.13128939 24.86871061 17.13128939 24.86871061 16 26 C13.66702567 26.04092937 11.33294775 26.04241723 9 26 C7.49172203 22.23242503 5.99481006 18.46043651 4.5 14.6875 C4.07074219 13.61564453 3.64148438 12.54378906 3.19921875 11.43945312 C2.59013672 9.89741211 2.59013672 9.89741211 1.96875 8.32421875 C1.40317383 6.9024231 1.40317383 6.9024231 0.82617188 5.4519043 C0 3 0 3 0 0 Z " fill="#2E2E2E" transform="translate(766,132)"/>
<path d="M0 0 C1.89510699 -0.08160748 3.79124504 -0.13946459 5.6875 -0.1875 C6.74324219 -0.22230469 7.79898437 -0.25710937 8.88671875 -0.29296875 C12.39023718 0.03672244 14.18351356 0.93792957 17 3 C19.33067577 6.21855225 19.46741137 9.10490526 19 13 C16.88046975 16.86057296 14.84061171 19.81085133 11 22 C8.3270555 22.21326685 5.9073788 22.28545631 3.25 22.1875 C2.55261719 22.17396484 1.85523438 22.16042969 1.13671875 22.14648438 C-0.57585541 22.1112945 -2.28802941 22.05749155 -4 22 C-2.92373883 14.59211729 -1.72864339 7.28499714 0 0 Z M5 6 C4.34 9.63 3.68 13.26 3 17 C7.91881874 16.71756411 7.91881874 16.71756411 12 14.25 C13.26851141 11.39584933 12.95072777 9.93141063 12 7 C10.87465895 5.64381501 10.87465895 5.64381501 7.9375 5.9375 C6.968125 5.958125 5.99875 5.97875 5 6 Z " fill="#2D2D2D" transform="translate(334,162)"/>
<path d="M0 0 C3.21682668 2.65388201 3.9027261 4.24960135 4.4375 8.375 C3.79176471 13.72537815 2.27286279 18.51766686 -2 22 C-5.01070023 22.99229071 -7.84289515 23.25986677 -11 23 C-14.0625 21.0625 -14.0625 21.0625 -16 18 C-16.83390258 12.34799362 -15.80033053 8.71335685 -13.265625 3.6640625 C-10.05053418 -0.56318653 -4.92022367 -0.96791285 0 0 Z M-6 5 C-8.60596706 7.76884 -9.91339205 9.36899922 -10.4375 13.1875 C-10.293125 14.115625 -10.14875 15.04375 -10 16 C-8.515 16.99 -8.515 16.99 -7 18 C-4.87856267 17.1044206 -4.87856267 17.1044206 -3 15 C-2.33825175 12.0141919 -2.12794052 9.05138131 -2 6 C-3.32 5.67 -4.64 5.34 -6 5 Z " fill="#2D2D2D" transform="translate(349,191)"/>
<path d="M0 0 C3.21682668 2.65388201 3.9027261 4.24960135 4.4375 8.375 C3.79176471 13.72537815 2.27286279 18.51766686 -2 22 C-5.01070023 22.99229071 -7.84289515 23.25986677 -11 23 C-14.0625 21.0625 -14.0625 21.0625 -16 18 C-16.83390258 12.34799362 -15.80033053 8.71335685 -13.265625 3.6640625 C-10.05053418 -0.56318653 -4.92022367 -0.96791285 0 0 Z M-6 5 C-8.60596706 7.76884 -9.91339205 9.36899922 -10.4375 13.1875 C-10.293125 14.115625 -10.14875 15.04375 -10 16 C-8.515 16.99 -8.515 16.99 -7 18 C-4.87856267 17.1044206 -4.87856267 17.1044206 -3 15 C-2.33825175 12.0141919 -2.12794052 9.05138131 -2 6 C-3.32 5.67 -4.64 5.34 -6 5 Z " fill="#2D2D2D" transform="translate(308,191)"/>
<path d="M0 0 C1.765625 1.35546875 1.765625 1.35546875 3 3 C3.1875 5.6875 3.1875 5.6875 3 8 C1.35 8 -0.3 8 -2 8 C-2.33 7.34 -2.66 6.68 -3 6 C-4.32 6 -5.64 6 -7 6 C-7.33 6.66 -7.66 7.32 -8 8 C-5.03 8.99 -2.06 9.98 1 11 C1.75 14.25 1.75 14.25 2 18 C0.15863826 20.41281883 -1.30301826 21.65150913 -4 23 C-12.1042654 23.45023697 -12.1042654 23.45023697 -15 21 C-15.75 17.875 -15.75 17.875 -16 15 C-14.02 15 -12.04 15 -10 15 C-9.67 15.66 -9.34 16.32 -9 17 C-7.35 17 -5.7 17 -4 17 C-5.60838293 13.78323414 -8.78593279 13.35329146 -12 12 C-12.66 11.34 -13.32 10.68 -14 10 C-13.87022682 6.43123758 -13.72179807 3.93232251 -11.5 1.0625 C-7.77834715 -0.51920246 -3.977814 -0.74721368 0 0 Z " fill="#2E2E2E" transform="translate(306,162)"/>
<path d="M0 0 C7.59 0 15.18 0 23 0 C23 1.98 23 3.96 23 6 C20.36 6 17.72 6 15 6 C15 12.6 15 19.2 15 26 C12.69 26 10.38 26 8 26 C8 19.4 8 12.8 8 6 C5.36 6 2.72 6 0 6 C0 4.02 0 2.04 0 0 Z " fill="#2E2E2E" transform="translate(1045,132)"/>
<path d="M0 0 C4.95 0 9.9 0 15 0 C14.67 1.65 14.34 3.3 14 5 C11.03 5 8.06 5 5 5 C5 5.99 5 6.98 5 8 C7.31 8.33 9.62 8.66 12 9 C12 10.65 12 12.3 12 14 C9.03 14 6.06 14 3 14 C3 14.99 3 15.98 3 17 C5.97 17 8.94 17 12 17 C11.67 18.65 11.34 20.3 11 22 C6.05 22 1.1 22 -4 22 C-3.36051919 14.45412647 -1.78232739 7.36178703 0 0 Z " fill="#2E2E2E" transform="translate(276,162)"/>
<path d="M0 0 C2 1.0625 2 1.0625 3 3 C3.5 6.375 3.5 6.375 3 10 C0.5625 12.875 0.5625 12.875 -2 15 C-2.33 15.33 -2.66 15.66 -3 16 C-1.35 16.33 0.3 16.66 2 17 C1.67 18.65 1.34 20.3 1 22 C-4.61 22 -10.22 22 -16 22 C-15 17 -15 17 -12.53125 14.8671875 C-11.5309375 14.20976562 -10.530625 13.55234375 -9.5 12.875 C-5.19793883 10.26960493 -5.19793883 10.26960493 -3 6 C-5.75641416 6.49756092 -5.75641416 6.49756092 -8 8 C-9.66617115 8.04063832 -11.33388095 8.042721 -13 8 C-12.68762196 5.11050316 -12.35661121 3.41366901 -10.4375 1.1875 C-6.73081902 -0.61831894 -4.11485579 -0.39189103 0 0 Z " fill="#2D2D2D" transform="translate(287,191)"/>
<path d="M0 0 C2 1.125 2 1.125 3 3 C3.5625 5.75 3.5625 5.75 3 9 C1.22412657 11.56343469 -0.80411422 13.79104347 -3 16 C-1.68 16.33 -0.36 16.66 1 17 C1 18.65 1 20.3 1 22 C-4.61 22 -10.22 22 -16 22 C-15 17 -15 17 -12.53125 14.90234375 C-11.03078125 13.92974609 -11.03078125 13.92974609 -9.5 12.9375 C-5.489737 10.54621047 -5.489737 10.54621047 -3.15625 6.75390625 C-3.1046875 6.17511719 -3.053125 5.59632813 -3 5 C-3.721875 5.495 -4.44375 5.99 -5.1875 6.5 C-8.14848659 8.07919285 -9.71253029 8.28178312 -13 8 C-12.68762196 5.11050316 -12.35661121 3.41366901 -10.4375 1.1875 C-6.73081902 -0.61831894 -4.11485579 -0.39189103 0 0 Z " fill="#2D2D2D" transform="translate(328,191)"/>
<path d="M0 0 C2.31 0 4.62 0 7 0 C7 6.6 7 13.2 7 20 C10.63 20 14.26 20 18 20 C18 21.98 18 23.96 18 26 C12.06 26 6.12 26 0 26 C0 17.42 0 8.84 0 0 Z " fill="#2E2E2E" transform="translate(834,132)"/>
<path d="M0 0 C6.6 0 13.2 0 20 0 C19.67 1.98 19.34 3.96 19 6 C16.69 6 14.38 6 12 6 C11.01 11.28 10.02 16.56 9 22 C7.02 22 5.04 22 3 22 C3.47986031 16.43109483 4.29915181 11.32932432 6 6 C3.69 6 1.38 6 -1 6 C-0.67 4.02 -0.34 2.04 0 0 Z " fill="#2E2E2E" transform="translate(312,162)"/>
</svg>
